# xmcd
#
# Track frame offsets: 
#        150
#        3478
#        32363
#        78750
#        110888
#        157275
#        189450
#
# Disc length: 3144 seconds
#
# Revision: 0
# Processed by: cddbd v1.5.2PL0 Copyright (c) Steve Scherf et al.
# Submitted via: ExactAudioCopy v0.99pb3
#
DISCID=4f0c4607
DTITLE=suma ching hai - buddha's chanting 2
DYEAR=1996
DGENRE=Booty Bass
TTITLE0=01
TTITLE1=02
TTITLE2=03
TTITLE3=04
TTITLE4=05
TTITLE5=06
TTITLE6=07
EXTD=
EXTT0=
EXTT1=
EXTT2=
EXTT3=
EXTT4=
EXTT5=
EXTT6=
PLAYORDER=
